<svg width="130" height="130" viewBox="0 0 130 130" fill="none" xmlns="http://www.w3.org/2000/svg">
<g clip-path="url(#clip0_5091_696)">
<path d="M3.51083 0H0V24.5939H3.51083V0Z" fill="#315B7C"/>
<path d="M3.51083 28.1045H0V42.1568H3.51083V28.1045Z" fill="#315B7C"/>
<path d="M3.51083 52.6982H0V56.2091H3.51083V52.6982Z" fill="#315B7C"/>
<path d="M3.51083 59.7295H0V63.2403H3.51083V59.7295Z" fill="#315B7C"/>
<path d="M3.51083 66.751H0V73.7817H3.51083V66.751Z" fill="#315B7C"/>
<path d="M3.51083 80.8125H0V84.3233H3.51083V80.8125Z" fill="#315B7C"/>
<path d="M3.51083 87.834H0V101.886H3.51083V87.834Z" fill="#315B7C"/>
<path d="M3.51083 105.405H0V129.999H3.51083V105.405Z" fill="#315B7C"/>
<path d="M7.01962 0H3.50879V3.51083H7.01962V0Z" fill="#315B7C"/>
<path d="M7.01962 21.083H3.50879V24.5938H7.01962V21.083Z" fill="#315B7C"/>
<path d="M7.01962 31.624H3.50879V35.1348H7.01962V31.624Z" fill="#315B7C"/>
<path d="M7.01962 38.6465H3.50879V49.188H7.01962V38.6465Z" fill="#315B7C"/>
<path d="M7.01962 52.6982H3.50879V56.2091H7.01962V52.6982Z" fill="#315B7C"/>
<path d="M7.01962 59.7295H3.50879V63.2403H7.01962V59.7295Z" fill="#315B7C"/>
<path d="M7.01962 66.751H3.50879V73.7817H7.01962V66.751Z" fill="#315B7C"/>
<path d="M7.01962 80.8125H3.50879V84.3233H7.01962V80.8125Z" fill="#315B7C"/>
<path d="M7.01962 91.3447H3.50879V94.8556H7.01962V91.3447Z" fill="#315B7C"/>
<path d="M7.01962 105.405H3.50879V108.916H7.01962V105.405Z" fill="#315B7C"/>
<path d="M7.01962 126.48H3.50879V129.991H7.01962V126.48Z" fill="#315B7C"/>
<path d="M10.5392 0H7.02832V3.51083H10.5392V0Z" fill="#315B7C"/>
<path d="M10.5392 7.02148H7.02832V17.563H10.5392V7.02148Z" fill="#315B7C"/>
<path d="M10.5392 21.083H7.02832V24.5938H10.5392V21.083Z" fill="#315B7C"/>
<path d="M10.5392 31.624H7.02832V49.1872H10.5392V31.624Z" fill="#315B7C"/>
<path d="M10.5392 52.6982H7.02832V59.7289H10.5392V52.6982Z" fill="#315B7C"/>
<path d="M10.5392 63.2402H7.02832V66.7511H10.5392V63.2402Z" fill="#315B7C"/>
<path d="M10.5392 73.7812H7.02832V77.2921H10.5392V73.7812Z" fill="#315B7C"/>
<path d="M10.5392 87.834H7.02832V91.3448H10.5392V87.834Z" fill="#315B7C"/>
<path d="M10.5392 94.8643H7.02832V101.895H10.5392V94.8643Z" fill="#315B7C"/>
<path d="M10.5392 105.405H7.02832V108.916H10.5392V105.405Z" fill="#315B7C"/>
<path d="M10.5392 112.428H7.02832V122.969H10.5392V112.428Z" fill="#315B7C"/>
<path d="M10.5392 126.48H7.02832V129.991H10.5392V126.48Z" fill="#315B7C"/>
<path d="M14.0538 0H10.543V3.51083H14.0538V0Z" fill="#315B7C"/>
<path d="M14.0538 7.02148H10.543V17.563H14.0538V7.02148Z" fill="#315B7C"/>
<path d="M14.0538 21.083H10.543V24.5938H14.0538V21.083Z" fill="#315B7C"/>
<path d="M14.0538 28.1045H10.543V31.6153H14.0538V28.1045Z" fill="#315B7C"/>
<path d="M14.0538 35.1348H10.543V38.6456H14.0538V35.1348Z" fill="#315B7C"/>
<path d="M14.0538 45.6768H10.543V56.2183H14.0538V45.6768Z" fill="#315B7C"/>
<path d="M14.0538 59.7295H10.543V63.2403H14.0538V59.7295Z" fill="#315B7C"/>
<path d="M14.0538 66.751H10.543V80.8033H14.0538V66.751Z" fill="#315B7C"/>
<path d="M14.0538 84.3232H10.543V87.8341H14.0538V84.3232Z" fill="#315B7C"/>
<path d="M14.0538 98.375H10.543V101.886H14.0538V98.375Z" fill="#315B7C"/>
<path d="M14.0538 105.405H10.543V108.916H14.0538V105.405Z" fill="#315B7C"/>
<path d="M14.0538 112.428H10.543V122.969H14.0538V112.428Z" fill="#315B7C"/>
<path d="M14.0538 126.48H10.543V129.991H14.0538V126.48Z" fill="#315B7C"/>
<path d="M17.5626 0H14.0518V3.51083H17.5626V0Z" fill="#315B7C"/>
<path d="M17.5626 7.02148H14.0518V17.563H17.5626V7.02148Z" fill="#315B7C"/>
<path d="M17.5626 21.083H14.0518V24.5938H17.5626V21.083Z" fill="#315B7C"/>
<path d="M17.5626 28.1045H14.0518V31.6153H17.5626V28.1045Z" fill="#315B7C"/>
<path d="M17.5626 35.1348H14.0518V38.6456H17.5626V35.1348Z" fill="#315B7C"/>
<path d="M17.5626 52.6982H14.0518V56.2091H17.5626V52.6982Z" fill="#315B7C"/>
<path d="M17.5626 59.7295H14.0518V66.7602H17.5626V59.7295Z" fill="#315B7C"/>
<path d="M17.5626 73.7812H14.0518V80.812H17.5626V73.7812Z" fill="#315B7C"/>
<path d="M17.5626 84.3232H14.0518V98.3756H17.5626V84.3232Z" fill="#315B7C"/>
<path d="M17.5626 105.405H14.0518V108.916H17.5626V105.405Z" fill="#315B7C"/>
<path d="M17.5626 112.428H14.0518V122.969H17.5626V112.428Z" fill="#315B7C"/>
<path d="M17.5626 126.48H14.0518V129.991H17.5626V126.48Z" fill="#315B7C"/>
<path d="M21.0733 0H17.5625V3.51083H21.0733V0Z" fill="#315B7C"/>
<path d="M21.0733 21.083H17.5625V24.5938H21.0733V21.083Z" fill="#315B7C"/>
<path d="M21.0733 28.1045H17.5625V31.6153H21.0733V28.1045Z" fill="#315B7C"/>
<path d="M21.0733 35.1348H17.5625V38.6456H21.0733V35.1348Z" fill="#315B7C"/>
<path d="M21.0733 45.6768H17.5625V52.7074H21.0733V45.6768Z" fill="#315B7C"/>
<path d="M21.0733 56.2188H17.5625V59.7296H21.0733V56.2188Z" fill="#315B7C"/>
<path d="M21.0733 63.2402H17.5625V73.7817H21.0733V63.2402Z" fill="#315B7C"/>
<path d="M21.0733 80.8125H17.5625V84.3233H21.0733V80.8125Z" fill="#315B7C"/>
<path d="M21.0733 87.834H17.5625V91.3448H21.0733V87.834Z" fill="#315B7C"/>
<path d="M21.0733 94.8643H17.5625V98.3751H21.0733V94.8643Z" fill="#315B7C"/>
<path d="M21.0733 105.405H17.5625V108.916H21.0733V105.405Z" fill="#315B7C"/>
<path d="M21.0733 126.48H17.5625V129.991H21.0733V126.48Z" fill="#315B7C"/>
<path d="M24.5938 0H21.083V24.5939H24.5938V0Z" fill="#315B7C"/>
<path d="M24.5938 28.1045H21.083V31.6153H24.5938V28.1045Z" fill="#315B7C"/>
<path d="M24.5938 35.1348H21.083V38.6456H24.5938V35.1348Z" fill="#315B7C"/>
<path d="M24.5938 42.1562H21.083V45.6671H24.5938V42.1562Z" fill="#315B7C"/>
<path d="M24.5938 49.1875H21.083V52.6983H24.5938V49.1875Z" fill="#315B7C"/>
<path d="M24.5938 56.2188H21.083V59.7296H24.5938V56.2188Z" fill="#315B7C"/>
<path d="M24.5938 63.2402H21.083V66.7511H24.5938V63.2402Z" fill="#315B7C"/>
<path d="M24.5938 70.2705H21.083V73.7813H24.5938V70.2705Z" fill="#315B7C"/>
<path d="M24.5938 77.292H21.083V80.8028H24.5938V77.292Z" fill="#315B7C"/>
<path d="M24.5938 84.3232H21.083V87.8341H24.5938V84.3232Z" fill="#315B7C"/>
<path d="M24.5938 91.3447H21.083V94.8556H24.5938V91.3447Z" fill="#315B7C"/>
<path d="M24.5938 98.375H21.083V101.886H24.5938V98.375Z" fill="#315B7C"/>
<path d="M24.5938 105.405H21.083V129.999H24.5938V105.405Z" fill="#315B7C"/>
<path d="M28.1046 28.1045H24.5938V45.6677H28.1046V28.1045Z" fill="#315B7C"/>
<path d="M28.1046 52.6982H24.5938V56.2091H28.1046V52.6982Z" fill="#315B7C"/>
<path d="M28.1046 66.751H24.5938V73.7817H28.1046V66.751Z" fill="#315B7C"/>
<path d="M28.1046 84.3232H24.5938V94.8648H28.1046V84.3232Z" fill="#315B7C"/>
<path d="M28.1046 98.375H24.5938V101.886H28.1046V98.375Z" fill="#315B7C"/>
<path d="M31.6163 0H28.1055V10.5415H31.6163V0Z" fill="#315B7C"/>
<path d="M31.6163 14.0518H28.1055V17.5626H31.6163V14.0518Z" fill="#315B7C"/>
<path d="M31.6163 21.083H28.1055V24.5938H31.6163V21.083Z" fill="#315B7C"/>
<path d="M31.6163 28.1045H28.1055V31.6153H31.6163V28.1045Z" fill="#315B7C"/>
<path d="M31.6163 38.6465H28.1055V42.1573H31.6163V38.6465Z" fill="#315B7C"/>
<path d="M31.6163 45.6768H28.1055V49.1876H31.6163V45.6768Z" fill="#315B7C"/>
<path d="M31.6163 59.7295H28.1055V66.7602H31.6163V59.7295Z" fill="#315B7C"/>
<path d="M31.6163 70.2705H28.1055V77.3012H31.6163V70.2705Z" fill="#315B7C"/>
<path d="M31.6163 84.3232H28.1055V94.8648H31.6163V84.3232Z" fill="#315B7C"/>
<path d="M31.6163 98.375H28.1055V119.458H31.6163V98.375Z" fill="#315B7C"/>
<path d="M31.6163 126.48H28.1055V129.991H31.6163V126.48Z" fill="#315B7C"/>
<path d="M35.1339 24.5938H31.623V31.6244H35.1339V24.5938Z" fill="#315B7C"/>
<path d="M35.1339 35.1348H31.623V38.6456H35.1339V35.1348Z" fill="#315B7C"/>
<path d="M35.1339 42.1562H31.623V49.1869H35.1339V42.1562Z" fill="#315B7C"/>
<path d="M35.1339 66.751H31.623V70.2618H35.1339V66.751Z" fill="#315B7C"/>
<path d="M35.1339 73.7812H31.623V94.8643H35.1339V73.7812Z" fill="#315B7C"/>
<path d="M35.1339 98.375H31.623V105.406H35.1339V98.375Z" fill="#315B7C"/>
<path d="M35.1339 112.428H31.623V115.939H35.1339V112.428Z" fill="#315B7C"/>
<path d="M35.1339 122.97H31.623V130H35.1339V122.97Z" fill="#315B7C"/>
<path d="M38.6476 0H35.1367V3.51083H38.6476V0Z" fill="#315B7C"/>
<path d="M38.6476 14.0518H35.1367V24.5933H38.6476V14.0518Z" fill="#315B7C"/>
<path d="M38.6476 35.1348H35.1367V38.6456H38.6476V35.1348Z" fill="#315B7C"/>
<path d="M38.6476 42.1562H35.1367V49.1869H38.6476V42.1562Z" fill="#315B7C"/>
<path d="M38.6476 56.2188H35.1367V59.7296H38.6476V56.2188Z" fill="#315B7C"/>
<path d="M38.6476 73.7812H35.1367V80.812H38.6476V73.7812Z" fill="#315B7C"/>
<path d="M38.6476 84.3232H35.1367V87.8341H38.6476V84.3232Z" fill="#315B7C"/>
<path d="M38.6476 94.8643H35.1367V98.3751H38.6476V94.8643Z" fill="#315B7C"/>
<path d="M38.6476 101.887H35.1367V105.398H38.6476V101.887Z" fill="#315B7C"/>
<path d="M38.6476 108.916H35.1367V119.458H38.6476V108.916Z" fill="#315B7C"/>
<path d="M38.6476 122.97H35.1367V130H38.6476V122.97Z" fill="#315B7C"/>
<path d="M42.1563 7.02148H38.6455V10.5323H42.1563V7.02148Z" fill="#315B7C"/>
<path d="M42.1563 14.0518H38.6455V17.5626H42.1563V14.0518Z" fill="#315B7C"/>
<path d="M42.1563 31.624H38.6455V35.1348H42.1563V31.624Z" fill="#315B7C"/>
<path d="M42.1563 56.2188H38.6455V63.2494H42.1563V56.2188Z" fill="#315B7C"/>
<path d="M42.1563 73.7812H38.6455V84.3228H42.1563V73.7812Z" fill="#315B7C"/>
<path d="M42.1563 87.834H38.6455V91.3448H42.1563V87.834Z" fill="#315B7C"/>
<path d="M42.1563 94.8643H38.6455V98.3751H42.1563V94.8643Z" fill="#315B7C"/>
<path d="M42.1563 115.947H38.6455V122.978H42.1563V115.947Z" fill="#315B7C"/>
<path d="M45.6681 7.02148H42.1572V28.1045H45.6681V7.02148Z" fill="#315B7C"/>
<path d="M45.6681 31.624H42.1572V35.1348H45.6681V31.624Z" fill="#315B7C"/>
<path d="M45.6681 38.6465H42.1572V42.1573H45.6681V38.6465Z" fill="#315B7C"/>
<path d="M45.6681 45.6768H42.1572V49.1876H45.6681V45.6768Z" fill="#315B7C"/>
<path d="M45.6681 52.6982H42.1572V66.7506H45.6681V52.6982Z" fill="#315B7C"/>
<path d="M45.6681 70.2705H42.1572V73.7813H45.6681V70.2705Z" fill="#315B7C"/>
<path d="M45.6681 91.3447H42.1572V94.8556H45.6681V91.3447Z" fill="#315B7C"/>
<path d="M45.6681 108.916H42.1572V126.488H45.6681V108.916Z" fill="#315B7C"/>
<path d="M49.1876 17.5625H45.6768V21.0733H49.1876V17.5625Z" fill="#315B7C"/>
<path d="M49.1876 24.5938H45.6768V35.1353H49.1876V24.5938Z" fill="#315B7C"/>
<path d="M49.1876 45.6768H45.6768V56.2183H49.1876V45.6768Z" fill="#315B7C"/>
<path d="M49.1876 66.751H45.6768V73.7817H49.1876V66.751Z" fill="#315B7C"/>
<path d="M49.1876 77.292H45.6768V80.8028H49.1876V77.292Z" fill="#315B7C"/>
<path d="M49.1876 105.405H45.6768V108.916H49.1876V105.405Z" fill="#315B7C"/>
<path d="M49.1876 119.458H45.6768V122.969H49.1876V119.458Z" fill="#315B7C"/>
<path d="M52.6993 0H49.1885V14.0523H52.6993V0Z" fill="#315B7C"/>
<path d="M52.6993 17.5625H49.1885V24.5932H52.6993V17.5625Z" fill="#315B7C"/>
<path d="M52.6993 28.1045H49.1885V35.1352H52.6993V28.1045Z" fill="#315B7C"/>
<path d="M52.6993 42.1562H49.1885V45.6671H52.6993V42.1562Z" fill="#315B7C"/>
<path d="M52.6993 49.1875H49.1885V56.2182H52.6993V49.1875Z" fill="#315B7C"/>
<path d="M52.6993 59.7295H49.1885V66.7602H52.6993V59.7295Z" fill="#315B7C"/>
<path d="M52.6993 73.7812H49.1885V77.2921H52.6993V73.7812Z" fill="#315B7C"/>
<path d="M52.6993 80.8125H49.1885V87.8432H52.6993V80.8125Z" fill="#315B7C"/>
<path d="M52.6993 91.3447H49.1885V105.397H52.6993V91.3447Z" fill="#315B7C"/>
<path d="M52.6993 108.916H49.1885V112.427H52.6993V108.916Z" fill="#315B7C"/>
<path d="M52.6993 115.947H49.1885V119.458H52.6993V115.947Z" fill="#315B7C"/>
<path d="M52.6993 126.48H49.1885V129.991H52.6993V126.48Z" fill="#315B7C"/>
<path d="M56.211 3.51074H52.7002V7.02157H56.211V3.51074Z" fill="#315B7C"/>
<path d="M56.211 17.5625H52.7002V21.0733H56.211V17.5625Z" fill="#315B7C"/>
<path d="M56.211 38.6465H52.7002V42.1573H56.211V38.6465Z" fill="#315B7C"/>
<path d="M56.211 45.6768H52.7002V52.7074H56.211V45.6768Z" fill="#315B7C"/>
<path d="M56.211 63.2402H52.7002V66.7511H56.211V63.2402Z" fill="#315B7C"/>
<path d="M56.211 70.2705H52.7002V80.812H56.211V70.2705Z" fill="#315B7C"/>
<path d="M56.211 94.8643H52.7002V98.3751H56.211V94.8643Z" fill="#315B7C"/>
<path d="M56.211 101.887H52.7002V108.917H56.211V101.887Z" fill="#315B7C"/>
<path d="M56.211 112.428H52.7002V115.939H56.211V112.428Z" fill="#315B7C"/>
<path d="M56.211 119.458H52.7002V122.969H56.211V119.458Z" fill="#315B7C"/>
<path d="M56.211 126.48H52.7002V129.991H56.211V126.48Z" fill="#315B7C"/>
<path d="M59.7286 0H56.2178V7.03069H59.7286V0Z" fill="#315B7C"/>
<path d="M59.7286 21.083H56.2178V31.6245H59.7286V21.083Z" fill="#315B7C"/>
<path d="M59.7286 45.6768H56.2178V52.7074H59.7286V45.6768Z" fill="#315B7C"/>
<path d="M59.7286 56.2188H56.2178V63.2494H59.7286V56.2188Z" fill="#315B7C"/>
<path d="M59.7286 70.2705H56.2178V73.7813H59.7286V70.2705Z" fill="#315B7C"/>
<path d="M59.7286 77.292H56.2178V94.8642H59.7286V77.292Z" fill="#315B7C"/>
<path d="M59.7286 115.947H56.2178V130H59.7286V115.947Z" fill="#315B7C"/>
<path d="M63.2393 0H59.7285V7.03069H63.2393V0Z" fill="#315B7C"/>
<path d="M63.2393 10.541H59.7285V17.5717H63.2393V10.541Z" fill="#315B7C"/>
<path d="M63.2393 31.624H59.7285V35.1348H63.2393V31.624Z" fill="#315B7C"/>
<path d="M63.2393 38.6465H59.7285V42.1573H63.2393V38.6465Z" fill="#315B7C"/>
<path d="M63.2393 45.6768H59.7285V66.7598H63.2393V45.6768Z" fill="#315B7C"/>
<path d="M63.2393 70.2705H59.7285V73.7813H63.2393V70.2705Z" fill="#315B7C"/>
<path d="M63.2393 77.292H59.7285V87.8335H63.2393V77.292Z" fill="#315B7C"/>
<path d="M63.2393 108.916H59.7285V112.427H63.2393V108.916Z" fill="#315B7C"/>
<path d="M63.2393 119.458H59.7285V126.489H63.2393V119.458Z" fill="#315B7C"/>
<path d="M66.7511 3.51074H63.2402V7.02157H66.7511V3.51074Z" fill="#315B7C"/>
<path d="M66.7511 10.541H63.2402V24.5934H66.7511V10.541Z" fill="#315B7C"/>
<path d="M66.7511 28.1045H63.2402V35.1352H66.7511V28.1045Z" fill="#315B7C"/>
<path d="M66.7511 45.6768H63.2402V49.1876H66.7511V45.6768Z" fill="#315B7C"/>
<path d="M66.7511 52.6982H63.2402V56.2091H66.7511V52.6982Z" fill="#315B7C"/>
<path d="M66.7511 59.7295H63.2402V63.2403H66.7511V59.7295Z" fill="#315B7C"/>
<path d="M66.7511 66.751H63.2402V70.2618H66.7511V66.751Z" fill="#315B7C"/>
<path d="M66.7511 73.7812H63.2402V80.812H66.7511V73.7812Z" fill="#315B7C"/>
<path d="M66.7511 84.3232H63.2402V87.8341H66.7511V84.3232Z" fill="#315B7C"/>
<path d="M66.7511 108.916H63.2402V112.427H66.7511V108.916Z" fill="#315B7C"/>
<path d="M66.7511 115.947H63.2402V119.458H66.7511V115.947Z" fill="#315B7C"/>
<path d="M66.7511 122.97H63.2402V126.481H66.7511V122.97Z" fill="#315B7C"/>
<path d="M70.2706 0H66.7598V10.5415H70.2706V0Z" fill="#315B7C"/>
<path d="M70.2706 14.0518H66.7598V17.5626H70.2706V14.0518Z" fill="#315B7C"/>
<path d="M70.2706 24.5938H66.7598V31.6244H70.2706V24.5938Z" fill="#315B7C"/>
<path d="M70.2706 49.1875H66.7598V52.6983H70.2706V49.1875Z" fill="#315B7C"/>
<path d="M70.2706 59.7295H66.7598V70.271H70.2706V59.7295Z" fill="#315B7C"/>
<path d="M70.2706 73.7812H66.7598V77.2921H70.2706V73.7812Z" fill="#315B7C"/>
<path d="M70.2706 84.3232H66.7598V87.8341H70.2706V84.3232Z" fill="#315B7C"/>
<path d="M70.2706 91.3447H66.7598V98.3754H70.2706V91.3447Z" fill="#315B7C"/>
<path d="M70.2706 101.887H66.7598V108.917H70.2706V101.887Z" fill="#315B7C"/>
<path d="M70.2706 115.947H66.7598V119.458H70.2706V115.947Z" fill="#315B7C"/>
<path d="M70.2706 122.97H66.7598V130H70.2706V122.97Z" fill="#315B7C"/>
<path d="M73.7823 7.02148H70.2715V10.5323H73.7823V7.02148Z" fill="#315B7C"/>
<path d="M73.7823 21.083H70.2715V31.6245H73.7823V21.083Z" fill="#315B7C"/>
<path d="M73.7823 38.6465H70.2715V42.1573H73.7823V38.6465Z" fill="#315B7C"/>
<path d="M73.7823 52.6982H70.2715V56.2091H73.7823V52.6982Z" fill="#315B7C"/>
<path d="M73.7823 63.2402H70.2715V66.7511H73.7823V63.2402Z" fill="#315B7C"/>
<path d="M73.7823 70.2705H70.2715V73.7813H73.7823V70.2705Z" fill="#315B7C"/>
<path d="M73.7823 84.3232H70.2715V87.8341H73.7823V84.3232Z" fill="#315B7C"/>
<path d="M73.7823 91.3447H70.2715V94.8556H73.7823V91.3447Z" fill="#315B7C"/>
<path d="M73.7823 98.375H70.2715V105.406H73.7823V98.375Z" fill="#315B7C"/>
<path d="M73.7823 119.458H70.2715V130H73.7823V119.458Z" fill="#315B7C"/>
<path d="M77.2911 0H73.7803V14.0523H77.2911V0Z" fill="#315B7C"/>
<path d="M77.2911 35.1348H73.7803V38.6456H77.2911V35.1348Z" fill="#315B7C"/>
<path d="M77.2911 45.6768H73.7803V52.7074H77.2911V45.6768Z" fill="#315B7C"/>
<path d="M77.2911 59.7295H73.7803V63.2403H77.2911V59.7295Z" fill="#315B7C"/>
<path d="M77.2911 105.405H73.7803V108.916H77.2911V105.405Z" fill="#315B7C"/>
<path d="M77.2911 119.458H73.7803V122.969H77.2911V119.458Z" fill="#315B7C"/>
<path d="M80.8048 0H77.2939V3.51083H80.8048V0Z" fill="#315B7C"/>
<path d="M80.8048 14.0518H77.2939V17.5626H80.8048V14.0518Z" fill="#315B7C"/>
<path d="M80.8048 21.083H77.2939V24.5938H80.8048V21.083Z" fill="#315B7C"/>
<path d="M80.8048 28.1045H77.2939V31.6153H80.8048V28.1045Z" fill="#315B7C"/>
<path d="M80.8048 35.1348H77.2939V42.1655H80.8048V35.1348Z" fill="#315B7C"/>
<path d="M80.8048 56.2188H77.2939V59.7296H80.8048V56.2188Z" fill="#315B7C"/>
<path d="M80.8048 66.751H77.2939V70.2618H80.8048V66.751Z" fill="#315B7C"/>
<path d="M80.8048 80.8125H77.2939V84.3233H80.8048V80.8125Z" fill="#315B7C"/>
<path d="M80.8048 87.834H77.2939V105.406H80.8048V87.834Z" fill="#315B7C"/>
<path d="M80.8048 108.916H77.2939V122.968H80.8048V108.916Z" fill="#315B7C"/>
<path d="M80.8048 126.48H77.2939V129.991H80.8048V126.48Z" fill="#315B7C"/>
<path d="M84.3253 10.541H80.8145V14.0518H84.3253V10.541Z" fill="#315B7C"/>
<path d="M84.3253 17.5625H80.8145V21.0733H84.3253V17.5625Z" fill="#315B7C"/>
<path d="M84.3253 24.5938H80.8145V38.6461H84.3253V24.5938Z" fill="#315B7C"/>
<path d="M84.3253 42.1562H80.8145V49.1869H84.3253V42.1562Z" fill="#315B7C"/>
<path d="M84.3253 63.2402H80.8145V66.7511H84.3253V63.2402Z" fill="#315B7C"/>
<path d="M84.3253 70.2705H80.8145V80.812H84.3253V70.2705Z" fill="#315B7C"/>
<path d="M84.3253 87.834H80.8145V91.3448H84.3253V87.834Z" fill="#315B7C"/>
<path d="M84.3253 98.375H80.8145V101.886H84.3253V98.375Z" fill="#315B7C"/>
<path d="M84.3253 105.405H80.8145V112.436H84.3253V105.405Z" fill="#315B7C"/>
<path d="M84.3253 115.947H80.8145V122.978H84.3253V115.947Z" fill="#315B7C"/>
<path d="M87.8341 3.51074H84.3232V10.5414H87.8341V3.51074Z" fill="#315B7C"/>
<path d="M87.8341 21.083H84.3232V24.5938H87.8341V21.083Z" fill="#315B7C"/>
<path d="M87.8341 28.1045H84.3232V31.6153H87.8341V28.1045Z" fill="#315B7C"/>
<path d="M87.8341 35.1348H84.3232V38.6456H87.8341V35.1348Z" fill="#315B7C"/>
<path d="M87.8341 42.1562H84.3232V49.1869H87.8341V42.1562Z" fill="#315B7C"/>
<path d="M87.8341 56.2188H84.3232V66.7603H87.8341V56.2188Z" fill="#315B7C"/>
<path d="M87.8341 70.2705H84.3232V73.7813H87.8341V70.2705Z" fill="#315B7C"/>
<path d="M87.8341 84.3232H84.3232V87.8341H87.8341V84.3232Z" fill="#315B7C"/>
<path d="M87.8341 94.8643H84.3232V101.895H87.8341V94.8643Z" fill="#315B7C"/>
<path d="M87.8341 108.916H84.3232V115.947H87.8341V108.916Z" fill="#315B7C"/>
<path d="M87.8341 119.458H84.3232V122.969H87.8341V119.458Z" fill="#315B7C"/>
<path d="M87.8341 126.48H84.3232V129.991H87.8341V126.48Z" fill="#315B7C"/>
<path d="M91.3419 7.02148H87.8311V21.0738H91.3419V7.02148Z" fill="#315B7C"/>
<path d="M91.3419 24.5938H87.8311V28.1046H91.3419V24.5938Z" fill="#315B7C"/>
<path d="M91.3419 35.1348H87.8311V38.6456H91.3419V35.1348Z" fill="#315B7C"/>
<path d="M91.3419 56.2188H87.8311V70.2711H91.3419V56.2188Z" fill="#315B7C"/>
<path d="M91.3419 87.834H87.8311V94.8647H91.3419V87.834Z" fill="#315B7C"/>
<path d="M91.3419 98.375H87.8311V101.886H91.3419V98.375Z" fill="#315B7C"/>
<path d="M91.3419 108.916H87.8311V112.427H91.3419V108.916Z" fill="#315B7C"/>
<path d="M91.3419 115.947H87.8311V122.978H91.3419V115.947Z" fill="#315B7C"/>
<path d="M94.8653 0H91.3545V3.51083H94.8653V0Z" fill="#315B7C"/>
<path d="M94.8653 7.02148H91.3545V10.5323H94.8653V7.02148Z" fill="#315B7C"/>
<path d="M94.8653 14.0518H91.3545V17.5626H94.8653V14.0518Z" fill="#315B7C"/>
<path d="M94.8653 21.083H91.3545V35.1354H94.8653V21.083Z" fill="#315B7C"/>
<path d="M94.8653 38.6465H91.3545V42.1573H94.8653V38.6465Z" fill="#315B7C"/>
<path d="M94.8653 45.6768H91.3545V52.7074H94.8653V45.6768Z" fill="#315B7C"/>
<path d="M94.8653 59.7295H91.3545V63.2403H94.8653V59.7295Z" fill="#315B7C"/>
<path d="M94.8653 66.751H91.3545V77.2925H94.8653V66.751Z" fill="#315B7C"/>
<path d="M94.8653 80.8125H91.3545V84.3233H94.8653V80.8125Z" fill="#315B7C"/>
<path d="M94.8653 91.3447H91.3545V94.8556H94.8653V91.3447Z" fill="#315B7C"/>
<path d="M94.8653 98.375H91.3545V101.886H94.8653V98.375Z" fill="#315B7C"/>
<path d="M94.8653 105.405H91.3545V119.458H94.8653V105.405Z" fill="#315B7C"/>
<path d="M98.377 7.02148H94.8662V10.5323H98.377V7.02148Z" fill="#315B7C"/>
<path d="M98.377 24.5938H94.8662V28.1046H98.377V24.5938Z" fill="#315B7C"/>
<path d="M98.377 31.624H94.8662V70.2702H98.377V31.624Z" fill="#315B7C"/>
<path d="M98.377 73.7812H94.8662V84.3228H98.377V73.7812Z" fill="#315B7C"/>
<path d="M98.377 87.834H94.8662V101.886H98.377V87.834Z" fill="#315B7C"/>
<path d="M98.377 112.428H94.8662V122.969H98.377V112.428Z" fill="#315B7C"/>
<path d="M101.885 7.02148H98.374V17.563H101.885V7.02148Z" fill="#315B7C"/>
<path d="M101.885 21.083H98.374V28.1137H101.885V21.083Z" fill="#315B7C"/>
<path d="M101.885 38.6465H98.374V49.188H101.885V38.6465Z" fill="#315B7C"/>
<path d="M101.885 56.2188H98.374V59.7296H101.885V56.2188Z" fill="#315B7C"/>
<path d="M101.885 66.751H98.374V73.7817H101.885V66.751Z" fill="#315B7C"/>
<path d="M101.885 84.3232H98.374V91.3539H101.885V84.3232Z" fill="#315B7C"/>
<path d="M101.885 94.8643H98.374V122.969H101.885V94.8643Z" fill="#315B7C"/>
<path d="M101.885 126.48H98.374V129.991H101.885V126.48Z" fill="#315B7C"/>
<path d="M105.397 28.1045H101.886V31.6153H105.397V28.1045Z" fill="#315B7C"/>
<path d="M105.397 35.1348H101.886V42.1655H105.397V35.1348Z" fill="#315B7C"/>
<path d="M105.397 49.1875H101.886V52.6983H105.397V49.1875Z" fill="#315B7C"/>
<path d="M105.397 59.7295H101.886V63.2403H105.397V59.7295Z" fill="#315B7C"/>
<path d="M105.397 70.2705H101.886V73.7813H105.397V70.2705Z" fill="#315B7C"/>
<path d="M105.397 77.292H101.886V87.8335H105.397V77.292Z" fill="#315B7C"/>
<path d="M105.397 94.8643H101.886V101.895H105.397V94.8643Z" fill="#315B7C"/>
<path d="M105.397 112.428H101.886V119.458H105.397V112.428Z" fill="#315B7C"/>
<path d="M105.397 126.48H101.886V129.991H105.397V126.48Z" fill="#315B7C"/>
<path d="M108.919 0H105.408V24.5939H108.919V0Z" fill="#315B7C"/>
<path d="M108.919 35.1348H105.408V45.6763H108.919V35.1348Z" fill="#315B7C"/>
<path d="M108.919 49.1875H105.408V52.6983H108.919V49.1875Z" fill="#315B7C"/>
<path d="M108.919 56.2188H105.408V59.7296H108.919V56.2188Z" fill="#315B7C"/>
<path d="M108.919 66.751H105.408V73.7817H108.919V66.751Z" fill="#315B7C"/>
<path d="M108.919 77.292H105.408V80.8028H108.919V77.292Z" fill="#315B7C"/>
<path d="M108.919 84.3232H105.408V87.8341H108.919V84.3232Z" fill="#315B7C"/>
<path d="M108.919 91.3447H105.408V101.886H108.919V91.3447Z" fill="#315B7C"/>
<path d="M108.919 105.405H105.408V108.916H108.919V105.405Z" fill="#315B7C"/>
<path d="M108.919 112.428H105.408V119.458H108.919V112.428Z" fill="#315B7C"/>
<path d="M112.428 0H108.917V3.51083H112.428V0Z" fill="#315B7C"/>
<path d="M112.428 21.083H108.917V24.5938H112.428V21.083Z" fill="#315B7C"/>
<path d="M112.428 31.624H108.917V38.6547H112.428V31.624Z" fill="#315B7C"/>
<path d="M112.428 52.6982H108.917V56.2091H112.428V52.6982Z" fill="#315B7C"/>
<path d="M112.428 59.7295H108.917V73.7818H112.428V59.7295Z" fill="#315B7C"/>
<path d="M112.428 77.292H108.917V87.8335H112.428V77.292Z" fill="#315B7C"/>
<path d="M112.428 91.3447H108.917V101.886H112.428V91.3447Z" fill="#315B7C"/>
<path d="M112.428 112.428H108.917V115.939H112.428V112.428Z" fill="#315B7C"/>
<path d="M112.428 126.48H108.917V129.991H112.428V126.48Z" fill="#315B7C"/>
<path d="M115.94 0H112.429V3.51083H115.94V0Z" fill="#315B7C"/>
<path d="M115.94 7.02148H112.429V17.563H115.94V7.02148Z" fill="#315B7C"/>
<path d="M115.94 21.083H112.429V24.5938H115.94V21.083Z" fill="#315B7C"/>
<path d="M115.94 28.1045H112.429V35.1352H115.94V28.1045Z" fill="#315B7C"/>
<path d="M115.94 45.6768H112.429V52.7074H115.94V45.6768Z" fill="#315B7C"/>
<path d="M115.94 63.2402H112.429V66.7511H115.94V63.2402Z" fill="#315B7C"/>
<path d="M115.94 70.2705H112.429V77.3012H115.94V70.2705Z" fill="#315B7C"/>
<path d="M115.94 80.8125H112.429V84.3233H115.94V80.8125Z" fill="#315B7C"/>
<path d="M115.94 87.834H112.429V94.8647H115.94V87.834Z" fill="#315B7C"/>
<path d="M115.94 98.375H112.429V115.947H115.94V98.375Z" fill="#315B7C"/>
<path d="M115.94 119.458H112.429V126.489H115.94V119.458Z" fill="#315B7C"/>
<path d="M119.456 0H115.945V3.51083H119.456V0Z" fill="#315B7C"/>
<path d="M119.456 7.02148H115.945V17.563H119.456V7.02148Z" fill="#315B7C"/>
<path d="M119.456 21.083H115.945V24.5938H119.456V21.083Z" fill="#315B7C"/>
<path d="M119.456 31.624H115.945V38.6547H119.456V31.624Z" fill="#315B7C"/>
<path d="M119.456 45.6768H115.945V56.2183H119.456V45.6768Z" fill="#315B7C"/>
<path d="M119.456 59.7295H115.945V63.2403H119.456V59.7295Z" fill="#315B7C"/>
<path d="M119.456 66.751H115.945V70.2618H119.456V66.751Z" fill="#315B7C"/>
<path d="M119.456 77.292H115.945V84.3227H119.456V77.292Z" fill="#315B7C"/>
<path d="M119.456 91.3447H115.945V98.3754H119.456V91.3447Z" fill="#315B7C"/>
<path d="M119.456 115.947H115.945V119.458H119.456V115.947Z" fill="#315B7C"/>
<path d="M119.456 126.48H115.945V129.991H119.456V126.48Z" fill="#315B7C"/>
<path d="M122.971 0H119.46V3.51083H122.971V0Z" fill="#315B7C"/>
<path d="M122.971 7.02148H119.46V17.563H122.971V7.02148Z" fill="#315B7C"/>
<path d="M122.971 21.083H119.46V24.5938H122.971V21.083Z" fill="#315B7C"/>
<path d="M122.971 28.1045H119.46V35.1352H122.971V28.1045Z" fill="#315B7C"/>
<path d="M122.971 38.6465H119.46V42.1573H122.971V38.6465Z" fill="#315B7C"/>
<path d="M122.971 49.1875H119.46V59.729H122.971V49.1875Z" fill="#315B7C"/>
<path d="M122.971 63.2402H119.46V66.7511H122.971V63.2402Z" fill="#315B7C"/>
<path d="M122.971 73.7812H119.46V77.2921H122.971V73.7812Z" fill="#315B7C"/>
<path d="M122.971 80.8125H119.46V84.3233H122.971V80.8125Z" fill="#315B7C"/>
<path d="M122.971 94.8643H119.46V105.406H122.971V94.8643Z" fill="#315B7C"/>
<path d="M122.971 115.947H119.46V119.458H122.971V115.947Z" fill="#315B7C"/>
<path d="M122.971 122.97H119.46V126.481H122.971V122.97Z" fill="#315B7C"/>
<path d="M126.48 0H122.969V3.51083H126.48V0Z" fill="#315B7C"/>
<path d="M126.48 21.083H122.969V24.5938H126.48V21.083Z" fill="#315B7C"/>
<path d="M126.48 28.1045H122.969V35.1352H126.48V28.1045Z" fill="#315B7C"/>
<path d="M126.48 38.6465H122.969V42.1573H126.48V38.6465Z" fill="#315B7C"/>
<path d="M126.48 49.1875H122.969V59.729H126.48V49.1875Z" fill="#315B7C"/>
<path d="M126.48 91.3447H122.969V98.3754H126.48V91.3447Z" fill="#315B7C"/>
<path d="M126.48 105.405H122.969V112.436H126.48V105.405Z" fill="#315B7C"/>
<path d="M126.48 122.97H122.969V126.481H126.48V122.97Z" fill="#315B7C"/>
<path d="M129.991 0H126.48V24.5939H129.991V0Z" fill="#315B7C"/>
<path d="M129.991 28.1045H126.48V31.6153H129.991V28.1045Z" fill="#315B7C"/>
<path d="M129.991 35.1348H126.48V45.6763H129.991V35.1348Z" fill="#315B7C"/>
<path d="M129.991 49.1875H126.48V56.2182H129.991V49.1875Z" fill="#315B7C"/>
<path d="M129.991 63.2402H126.48V70.2709H129.991V63.2402Z" fill="#315B7C"/>
<path d="M129.991 77.292H126.48V80.8028H129.991V77.292Z" fill="#315B7C"/>
<path d="M129.991 91.3447H126.48V98.3754H129.991V91.3447Z" fill="#315B7C"/>
<path d="M129.991 105.405H126.48V108.916H129.991V105.405Z" fill="#315B7C"/>
<path d="M129.991 112.428H126.48V130H129.991V112.428Z" fill="#315B7C"/>
</g>
<defs>
<clipPath id="clip0_5091_696">
<rect width="130" height="130" fill="white"/>
</clipPath>
</defs>
</svg>
