<svg width="23" height="25" viewBox="0 0 23 25" fill="none" xmlns="http://www.w3.org/2000/svg">
<path fill-rule="evenodd" clip-rule="evenodd" d="M9.9375 1.52112C9.9375 1.52112 2.125 1.52112 2.125 15.5953L0.5625 17.1591C0.5625 21.3617 22.4375 21.4594 22.4375 17.1591L20.875 15.5953C20.875 1.52112 13.0625 1.52112 13.0625 1.52112C13.0625 -0.482552 9.9375 -0.53138 9.9375 1.52112ZM5.25 16.6508C5.25 16.6508 5.25 4.6486 11.5 4.6486C17.75 4.6486 17.75 16.6508 17.75 16.6508C13.0625 17.1589 9.9375 17.1589 5.25 16.6508Z" fill="#FF5561"/>
<path d="M6.9834 21.4741C8.47266 26.1997 14.5273 26.1507 16.0166 21.4741C13.0625 21.8504 9.9375 21.8504 6.9834 21.4741Z" fill="#FF5561"/>
</svg>
