<svg width="25" height="23" viewBox="0 0 25 23" fill="none" xmlns="http://www.w3.org/2000/svg">
<path d="M4.6875 0.5625H1.5625C0.698242 0.5625 0 1.26074 0 2.125V3.6875H6.25V2.125C6.25 1.26074 5.55176 0.5625 4.6875 0.5625Z" fill="#FF5561"/>
<path d="M0 20.875C0 21.7393 0.698242 22.4375 1.5625 22.4375H4.6875C5.55176 22.4375 6.25 21.7393 6.25 20.875V19.3125H0V20.875Z" fill="#FF5561"/>
<path d="M6.25 5.25H0V17.75H6.25V5.25Z" fill="#FF5561"/>
<path d="M12.5 0.5625H9.37501C8.51075 0.5625 7.81251 1.26074 7.81251 2.125V3.6875H14.0625V2.125C14.0625 1.26074 13.3643 0.5625 12.5 0.5625Z" fill="#FF5561"/>
<path d="M7.81251 20.875C7.81251 21.7393 8.51075 22.4375 9.37501 22.4375H12.5C13.3643 22.4375 14.0625 21.7393 14.0625 20.875V19.3125H7.81251V20.875Z" fill="#FF5561"/>
<path d="M14.0625 5.25H7.81251V17.75H14.0625V5.25Z" fill="#FF5561"/>
<path d="M17.5331 0.718783L16.0195 1.11429C15.1845 1.33402 14.6816 2.18363 14.9013 3.01859L15.2968 4.53226L19.833 3.35062L19.4374 1.83695C19.2177 1.00199 18.3681 0.499056 17.5331 0.718783Z" fill="#FF5561"/>
<path d="M20.2275 4.8612L15.691 6.04152L18.8385 18.139L23.375 16.9587L20.2275 4.8612Z" fill="#FF5561"/>
<path d="M19.6229 21.1632C19.8426 21.9981 20.6922 22.5011 21.5272 22.2813L23.0408 21.8858C23.8758 21.6661 24.3787 20.8165 24.159 19.9815L23.7635 18.4679L19.2274 19.6495L19.6229 21.1632Z" fill="#FF5561"/>
</svg>
