<svg width="25" height="23" viewBox="0 0 25 23" fill="none" xmlns="http://www.w3.org/2000/svg">
<path d="M7.80273 19.332H23.4375C25.5225 19.332 25.5225 22.457 23.4375 22.457H7.80273C5.73242 22.457 5.73242 19.332 7.80273 19.332ZM7.80273 13.082H23.4375C25.5225 13.082 25.5225 9.95703 23.4375 9.95703H7.80273C5.73242 9.95703 5.73242 13.082 7.80273 13.082ZM7.80273 3.6875H23.4375C25.5225 3.6875 25.5225 0.5625 23.4375 0.5625H7.80273C5.73242 0.5625 5.73242 3.6875 7.80273 3.6875ZM0 2.12988C0 4.20996 3.125 4.20996 3.125 2.12988C3.125 0.0449221 0 0.0449221 0 2.12988ZM0 11.5195C0 13.5996 3.125 13.5996 3.125 11.5195C3.125 9.43457 0 9.43457 0 11.5195ZM0 20.8945C0 22.9746 3.125 22.9746 3.125 20.8945C3.125 18.8096 0 18.8096 0 20.8945Z" fill="#FF5561"/>
</svg>
