<svg width="25" height="25" viewBox="0 0 25 25" fill="none" xmlns="http://www.w3.org/2000/svg">
<path d="M10.8044 0L11.6711 6.29635C10.8624 6.40831 10.1071 6.67152 9.42963 7.06139L6.25275 1.5789C7.66113 0.75531 9.19159 0.224113 10.8044 0Z" fill="#FF5561"/>
<path d="M15.7941 7.16362L19.1464 1.79329C17.7625 0.921059 16.2518 0.341034 14.6497 0.063324L13.577 6.32553C14.3765 6.46191 15.1273 6.74953 15.7941 7.16362Z" fill="#FF5561"/>
<path d="M18.7634 12.4123V12.4756C18.7634 13.2942 18.6063 14.0739 18.3194 14.7903L24.075 17.1539C24.6884 15.6481 25.0012 14.0545 25.0012 12.4123V12.3781L18.7634 12.4123Z" fill="#FF5561"/>
<path d="M24.3909 8.54759L18.4354 10.4872C18.1775 9.71241 17.7731 9.0107 17.2513 8.40626L22.0517 4.32739C23.1046 5.57976 23.8889 6.99787 24.3909 8.54759Z" fill="#FF5561"/>
<path d="M7.93427 8.25062L3.26508 4.01077C2.17407 5.22423 1.34094 6.61793 0.7901 8.14819L6.68152 10.2877C6.96381 9.53217 7.3941 8.84018 7.93427 8.25062Z" fill="#FF5561"/>
<path d="M12.5241 18.7134C12.0709 18.7134 11.6284 18.6646 11.1996 18.572L9.89807 24.6735C10.7602 24.8587 11.6284 24.9609 12.5348 24.9512C13.2565 24.9512 13.9874 24.8878 14.6985 24.7612L13.6212 18.6159C13.2657 18.6792 12.8995 18.7134 12.5241 18.7134Z" fill="#FF5561"/>
<path d="M18.3469 23.5039L15.4477 17.9873C16.1694 17.6023 16.8073 17.0809 17.3184 16.4619L22.0807 20.4727C21.037 21.7203 19.7797 22.7436 18.3469 23.5039Z" fill="#FF5561"/>
<path d="M6.28632 12.4756L6.29089 12.1832L0.0531006 11.9591C0.0485229 12.1101 0.0439453 12.2612 0.0439453 12.4172C0.0439453 13.8937 0.297241 15.346 0.799255 16.7252L6.64185 14.576C6.41296 13.9181 6.28632 13.2114 6.28632 12.4756Z" fill="#FF5561"/>
<path d="M2.67609 20.112L7.57874 16.2767C8.07617 16.9201 8.69415 17.4658 9.40063 17.8751L6.297 23.2796C4.89319 22.4659 3.67554 21.3985 2.67609 20.112Z" fill="#FF5561"/>
</svg>
